<svg xmlns="http://www.w3.org/2000/svg" width="142" height="30" viewBox="0 0 142 30">
    <path fill="#FFF" fill-rule="evenodd" d="M1.36 27.88c-.24-.24-.24-.48 0-.72l2.52-2.48c-1.12-1.28-2-2.74-2.64-4.38-.64-1.64-.96-3.393-.96-5.26 0-2 .373-3.88 1.12-5.64.747-1.76 1.767-3.287 3.06-4.58C5.753 3.527 7.28 2.5 9.04 1.74 10.8.98 12.68.6 14.68.6c1.92 0 3.727.347 5.42 1.04a14.1 14.1 0 0 1 4.46 2.88l2.64-2.56c.213-.24.44-.24.68 0l.16.16c.24.24.24.48 0 .72l-2.6 2.56a15.325 15.325 0 0 1 2.68 4.4c.667 1.653 1 3.4 1 5.24 0 2-.38 3.873-1.14 5.62a14.637 14.637 0 0 1-3.08 4.56c-1.293 1.293-2.82 2.313-4.58 3.06-1.76.747-3.64 1.12-5.64 1.12-1.947 0-3.767-.333-5.46-1a13.55 13.55 0 0 1-4.46-2.84L2.2 28.04c-.213.24-.44.24-.68 0l-.16-.16zM23.32 5.76a12.847 12.847 0 0 0-3.92-2.5c-1.467-.6-3.04-.9-4.72-.9-1.76 0-3.407.333-4.94 1a12.658 12.658 0 0 0-4 2.72 13.075 13.075 0 0 0-2.7 4.02c-.667 1.533-1 3.18-1 4.94 0 1.627.273 3.147.82 4.56a12.547 12.547 0 0 0 2.3 3.8L23.32 5.76zM6.04 24.28a12.014 12.014 0 0 0 3.9 2.48c1.48.587 3.06.88 4.74.88 1.76 0 3.407-.327 4.94-.98a12.62 12.62 0 0 0 4.02-2.7 12.966 12.966 0 0 0 2.72-4c.667-1.52 1-3.16 1-4.92a12.47 12.47 0 0 0-3.2-8.4L6.04 24.28zM36.76 1.12c0-.16.06-.287.18-.38.12-.093.26-.14.42-.14h.68l19.2 25h.04V1.52c0-.347.173-.52.52-.52h.8c.347 0 .52.173.52.52v27.36c0 .187-.067.32-.2.4a.84.84 0 0 1-.44.12h-.52l-.12-.12c-.08-.08-.313-.36-.7-.84-.387-.48-.973-1.227-1.76-2.24a772.73 772.73 0 0 1-3.32-4.32c-1.427-1.867-3.233-4.24-5.42-7.12s-4.867-6.413-8.04-10.6h-.04v24.32c0 .347-.173.52-.52.52h-.76c-.347 0-.52-.173-.52-.52V1.12zm31.34.4c0-.133.047-.253.14-.36a.436.436 0 0 1 .34-.16h8.48c1.947 0 3.773.367 5.48 1.1 1.707.733 3.2 1.733 4.48 3a14.019 14.019 0 0 1 3.02 4.44c.733 1.693 1.1 3.5 1.1 5.42 0 1.947-.367 3.773-1.1 5.48a13.958 13.958 0 0 1-3.02 4.46 14.365 14.365 0 0 1-4.48 3c-1.707.733-3.533 1.1-5.48 1.1h-8.48a.436.436 0 0 1-.34-.16.533.533 0 0 1-.14-.36V1.52zm8.64 25.76c1.76 0 3.393-.313 4.9-.94a11.99 11.99 0 0 0 3.92-2.6 12.315 12.315 0 0 0 2.62-3.9c.64-1.493.96-3.12.96-4.88 0-1.733-.32-3.347-.96-4.84a12.079 12.079 0 0 0-2.62-3.88c-1.107-1.093-2.413-1.953-3.92-2.58-1.507-.627-3.14-.94-4.9-.94h-6.76v24.56h6.76zM98.02 1.52c0-.347.173-.52.52-.52h16.04c.347 0 .52.173.52.52v.68c0 .347-.173.52-.52.52H99.94v11.04h12.68c.347 0 .52.173.52.52v.68c0 .347-.173.52-.52.52H99.94v11.84h14.64c.347 0 .52.173.52.52v.64c0 .347-.173.52-.52.52H98.54c-.347 0-.52-.173-.52-.52V1.52zm24.62 0c0-.347.173-.52.52-.52h9.92c1.227 0 2.38.22 3.46.66a9.2 9.2 0 0 1 2.84 1.8 8.31 8.31 0 0 1 1.92 2.7c.467 1.04.7 2.173.7 3.4a8.114 8.114 0 0 1-.5 2.86 8.513 8.513 0 0 1-1.38 2.42 9.36 9.36 0 0 1-2.08 1.88 9.13 9.13 0 0 1-2.64 1.2l5.84 10.36c.107.16.14.32.1.48-.04.16-.167.24-.38.24h-1.24a.566.566 0 0 1-.56-.36l-5.8-10.48c-.267.027-.513.04-.74.04h-8.1v10.28c0 .347-.213.52-.64.52h-.72c-.347 0-.52-.173-.52-.52V1.52zm10.36 15c.96 0 1.867-.18 2.72-.54a7.57 7.57 0 0 0 2.26-1.46 6.618 6.618 0 0 0 1.54-2.2 6.81 6.81 0 0 0 .56-2.76 6.3 6.3 0 0 0-.56-2.66 6.57 6.57 0 0 0-1.54-2.12 7.396 7.396 0 0 0-2.28-1.42 7.309 7.309 0 0 0-2.74-.52h-8.4v13.68H133z"/>
</svg>
