<?xml version="1.0" standalone="no"?><!-- Generator: Gravit.io --><svg xmlns="http://www.w3.org/2000/svg" xmlns:xlink="http://www.w3.org/1999/xlink" style="isolation:isolate" viewBox="0 0 142 30" width="142" height="30"><defs><clipPath id="_clipPath_VcC0QH4Ym2ReVA1A3pxjFYwA2nsKFuae"><rect width="142" height="30"/></clipPath></defs><g clip-path="url(#_clipPath_VcC0QH4Ym2ReVA1A3pxjFYwA2nsKFuae)"><path d=" M 1.36 27.88 C 1.12 27.64 1.12 27.4 1.36 27.16 L 3.88 24.68 C 2.76 23.4 1.88 21.94 1.24 20.3 C 0.6 18.66 0.28 16.907 0.28 15.04 C 0.28 13.04 0.653 11.16 1.4 9.4 C 2.147 7.64 3.167 6.113 4.46 4.82 C 5.753 3.527 7.28 2.5 9.04 1.74 C 10.8 0.98 12.68 0.6 14.68 0.6 C 16.6 0.6 18.407 0.947 20.1 1.64 C 21.756 2.309 23.269 3.286 24.56 4.52 L 27.2 1.96 C 27.413 1.72 27.64 1.72 27.88 1.96 L 28.04 2.12 C 28.28 2.36 28.28 2.6 28.04 2.84 L 25.44 5.4 C 26.575 6.705 27.481 8.193 28.12 9.8 C 28.787 11.453 29.12 13.2 29.12 15.04 C 29.12 17.04 28.74 18.913 27.98 20.66 C 27.251 22.361 26.206 23.908 24.9 25.22 C 23.607 26.513 22.08 27.533 20.32 28.28 C 18.56 29.027 16.68 29.4 14.68 29.4 C 12.733 29.4 10.913 29.067 9.22 28.4 C 7.561 27.755 6.046 26.79 4.76 25.56 L 2.2 28.04 C 1.987 28.28 1.76 28.28 1.52 28.04 L 1.36 27.88 Z  M 23.32 5.76 C 22.176 4.695 20.848 3.848 19.4 3.26 C 17.933 2.66 16.36 2.36 14.68 2.36 C 12.92 2.36 11.273 2.693 9.74 3.36 C 8.244 4.001 6.886 4.925 5.74 6.08 C 4.598 7.24 3.682 8.604 3.04 10.1 C 2.373 11.633 2.04 13.28 2.04 15.04 C 2.04 16.667 2.313 18.187 2.86 19.6 C 3.395 20.993 4.173 22.28 5.16 23.4 L 23.32 5.76 Z  M 6.04 24.28 C 7.167 25.351 8.492 26.194 9.94 26.76 C 11.42 27.347 13 27.64 14.68 27.64 C 16.44 27.64 18.087 27.313 19.62 26.66 C 21.122 26.028 22.487 25.111 23.64 23.96 C 24.79 22.809 25.712 21.452 26.36 19.96 C 27.027 18.44 27.36 16.8 27.36 15.04 C 27.375 11.94 26.234 8.945 24.16 6.64 L 6.04 24.28 Z  M 36.76 1.12 C 36.76 0.96 36.82 0.833 36.94 0.74 C 37.06 0.647 37.2 0.6 37.36 0.6 L 38.04 0.6 L 57.24 25.6 L 57.28 25.6 L 57.28 1.52 C 57.28 1.173 57.453 1 57.8 1 L 58.6 1 C 58.947 1 59.12 1.173 59.12 1.52 L 59.12 28.88 C 59.12 29.067 59.053 29.2 58.92 29.28 C 58.787 29.36 58.635 29.401 58.48 29.4 L 57.96 29.4 L 57.84 29.28 C 57.76 29.2 57.527 28.92 57.14 28.44 C 56.753 27.96 56.167 27.213 55.38 26.2 C 54.268 24.764 53.162 23.324 52.06 21.88 C 50.633 20.013 48.827 17.64 46.64 14.76 C 44.453 11.88 41.773 8.347 38.6 4.16 L 38.56 4.16 L 38.56 28.48 C 38.56 28.827 38.387 29 38.04 29 L 37.28 29 C 36.933 29 36.76 28.827 36.76 28.48 L 36.76 1.12 Z  M 68.1 1.52 C 68.1 1.387 68.147 1.267 68.24 1.16 C 68.323 1.058 68.448 0.999 68.58 1 L 77.06 1 C 79.007 1 80.833 1.367 82.54 2.1 C 84.247 2.833 85.74 3.833 87.02 5.1 C 88.303 6.372 89.329 7.879 90.04 9.54 C 90.773 11.233 91.14 13.04 91.14 14.96 C 91.14 16.907 90.773 18.733 90.04 20.44 C 89.332 22.109 88.307 23.624 87.02 24.9 C 85.729 26.174 84.209 27.192 82.54 27.9 C 80.833 28.633 79.007 29 77.06 29 L 68.58 29 C 68.448 29.001 68.323 28.942 68.24 28.84 C 68.15 28.742 68.1 28.613 68.1 28.48 L 68.1 1.52 Z  M 76.74 27.28 C 78.5 27.28 80.133 26.967 81.64 26.34 C 83.106 25.741 84.438 24.857 85.56 23.74 C 86.676 22.62 87.565 21.296 88.18 19.84 C 88.82 18.347 89.14 16.72 89.14 14.96 C 89.14 13.227 88.82 11.613 88.18 10.12 C 87.568 8.668 86.678 7.35 85.56 6.24 C 84.453 5.147 83.147 4.287 81.64 3.66 C 80.133 3.033 78.5 2.72 76.74 2.72 L 69.98 2.72 L 69.98 27.28 L 76.74 27.28 Z  M 98.02 1.52 C 98.02 1.173 98.193 1 98.54 1 L 114.58 1 C 114.927 1 115.1 1.173 115.1 1.52 L 115.1 2.2 C 115.1 2.547 114.927 2.72 114.58 2.72 L 99.94 2.72 L 99.94 13.76 L 112.62 13.76 C 112.967 13.76 113.14 13.933 113.14 14.28 L 113.14 14.96 C 113.14 15.307 112.967 15.48 112.62 15.48 L 99.94 15.48 L 99.94 27.32 L 114.58 27.32 C 114.927 27.32 115.1 27.493 115.1 27.84 L 115.1 28.48 C 115.1 28.827 114.927 29 114.58 29 L 98.54 29 C 98.193 29 98.02 28.827 98.02 28.48 L 98.02 1.52 L 98.02 1.52 Z  M 122.64 1.52 C 122.64 1.173 122.813 1 123.16 1 L 133.08 1 C 134.307 1 135.46 1.22 136.54 1.66 C 137.589 2.08 138.552 2.691 139.38 3.46 C 140.195 4.222 140.848 5.14 141.3 6.16 C 141.767 7.2 142 8.333 142 9.56 C 142.007 10.536 141.837 11.504 141.5 12.42 C 141.176 13.297 140.71 14.115 140.12 14.84 C 139.525 15.568 138.824 16.201 138.04 16.72 C 137.23 17.258 136.338 17.663 135.4 17.92 L 141.24 28.28 C 141.347 28.44 141.38 28.6 141.34 28.76 C 141.3 28.92 141.173 29 140.96 29 L 139.72 29 C 139.475 29.014 139.249 28.869 139.16 28.64 L 133.36 18.16 C 133.093 18.187 132.847 18.2 132.62 18.2 L 124.52 18.2 L 124.52 28.48 C 124.52 28.827 124.307 29 123.88 29 L 123.16 29 C 122.813 29 122.64 28.827 122.64 28.48 L 122.64 1.52 L 122.64 1.52 Z  M 133 16.52 C 133.96 16.52 134.867 16.34 135.72 15.98 C 136.554 15.632 137.32 15.138 137.98 14.52 C 138.638 13.9 139.162 13.151 139.52 12.32 C 139.897 11.449 140.088 10.509 140.08 9.56 C 140.089 8.643 139.898 7.735 139.52 6.9 C 139.154 6.097 138.63 5.376 137.98 4.78 C 137.313 4.171 136.54 3.69 135.7 3.36 C 134.829 3.012 133.898 2.836 132.96 2.84 L 124.56 2.84 L 124.56 16.52 L 133 16.52 Z " fill-rule="evenodd" fill="rgb(4,57,108)"/></g></svg>